<svg xmlns="http://www.w3.org/2000/svg" viewBox="0 0 90 90" fill="currentColor"> <path d="M86.63 41.64c-.98 0-4.63.49-6.96 1.28a4.391 4.391 0 00-3.1-1.94c-.73-5.78-3-11.07-6.38-15.47.78-1.04 1.06-2.35.8-3.55 2.2-1.08 5.14-3.32 5.83-4.02a3.374 3.374 0 000-4.76c-1.31-1.31-3.45-1.3-4.76.01-.69.69-2.93 3.63-4.02 5.82-1.18-.25-2.47.01-3.51.78-4.4-3.46-9.71-5.79-15.52-6.57a4.444 4.444 0 00-1.92-2.89c.79-2.32 1.28-5.98 1.28-6.96C48.37 1.51 46.86 0 45 0a3.37 3.37 0 00-3.36 3.37c0 .98.49 4.64 1.28 6.96-.96.62-1.68 1.64-1.92 2.82-5.9.69-11.32 2.99-15.81 6.44-.98-.61-2.14-.8-3.21-.58-1.08-2.21-3.34-5.03-4.04-5.73-.63-.63-1.48-.89-2.37-.89h-.01c-.9 0-1.74.26-2.38.89a3.353 3.353 0 00.01 4.75c.69.69 3.62 2.88 5.82 3.97-.22 1.06-.04 2.19.55 3.17a31.87 31.87 0 00-6.67 15.94c-1.07.28-1.99.93-2.56 1.81-2.33-.78-5.98-1.28-6.96-1.28-1.86 0-3.37 1.51-3.37 3.37a3.37 3.37 0 003.37 3.36c.98 0 4.63-.49 6.96-1.28.57.88 1.48 1.54 2.55 1.83a32.01 32.01 0 006.67 15.97c-.38.63-.62 1.34-.65 2.09-.02.37.03.72.1 1.07-2.19 1.09-5.12 3.32-5.82 4.01a3.386 3.386 0 000 4.77c.66.65 1.52.98 2.38.98.86 0 1.72-.33 2.38-.99.69-.69 2.92-3.61 4.01-5.81.29.06.58.1.88.1.07 0 .13 0 .2-.01a4.44 4.44 0 002.13-.66c4.5 3.47 9.94 5.78 15.88 6.47.24 1.16.94 2.15 1.88 2.77-.79 2.32-1.28 5.97-1.28 6.96 0 1.85 1.51 3.36 3.36 3.36a3.36 3.36 0 003.36-3.36c0-.99-.49-4.64-1.27-6.96.96-.63 1.68-1.65 1.91-2.84 5.83-.78 11.16-3.12 15.56-6.6.78.56 1.69.86 2.6.86.29 0 .58-.03.86-.09 1.07 2.21 3.34 5.4 4.04 6.1.64.64 1.48 1.28 2.38 1.28.9 0 1.75-.64 2.38-1.28 1.31-1.31 1.31-3.65 0-4.96-.7-.69-3.62-2.97-5.82-4.05.07-.35.12-.73.1-1.1-.04-.9-.36-1.76-.89-2.47 3.38-4.4 5.64-9.71 6.37-15.49 1.3-.18 2.42-.92 3.09-1.95 2.33.79 5.98 1.28 6.96 1.28 1.86 0 3.37-1.51 3.37-3.37a3.37 3.37 0 00-3.37-3.36zM43.09 67.17c-.67.5-1.17 1.25-1.36 2.11-4.32-.55-8.3-2.22-11.62-4.72.52-.79.71-1.75.56-2.63 2.07-.7 4.43-2.68 4.46-2.71.03-.04 2.39-2.85 2.87-5.03.3.08.61.14.93.14.92 0 2.04-.36 2.74-1.06.05.02.32.03.32.05v.01c0 1.3.53 2.45 1.55 3.06-1.23 1.87-1.65 5.6-1.65 5.65 0 .04.19 3.18 1.2 5.13zm.37-33.61c-.97.55-1.67 1.57-1.79 2.76-.15.06-.3.12-.45.19a3.62 3.62 0 00-3.11-.72c-.15-.72-.5-1.47-.84-2.09-.62-1.16-1.5-2.45-2.05-3-.03-.03-2.45-2.06-4.54-2.73.13-.89-.09-1.84-.65-2.61 3.34-2.52 7.33-4.22 11.67-4.77.18.95.73 1.79 1.48 2.31-.98 1.96-1.25 5.03-1.25 5.07 0 .05.32 3.71 1.53 5.59zm15.89-5.48c-2.08.7-4.44 2.68-4.48 2.71-.03.03-2.39 2.85-2.86 5.03a3.61 3.61 0 00-3.27.73c-.13-.06-.27-.12-.4-.18a3.647 3.647 0 00-1.7-2.76c1.23-1.86 1.56-5.59 1.56-5.64 0-.04-.28-3.18-1.28-5.14.69-.52 1.2-1.3 1.38-2.2 4.32.61 8.28 2.35 11.57 4.92-.49.77-.67 1.68-.52 2.53zm.45 36.29a24.495 24.495 0 01-11.54 4.87c-.21-.88-.73-1.64-1.44-2.14.98-1.96 1.25-5.02 1.25-5.06 0-.05-.32-3.71-1.53-5.59 1.07-.6 1.83-1.78 1.83-3.12 0-.02-.01-.04-.01-.06.04-.01.08-.03.12-.04.01.01.01.03.03.04.7.7 1.64 1.06 2.56 1.06.29 0 .56-.05.83-.11.44 2.18 2.83 5.04 2.88 5.09.56.55 1.85 1.43 3 2.05.47.25 1.01.5 1.55.68-.11.78.05 1.61.47 2.33zM48.42 44.93a3.585 3.585 0 01-7.17 0 3.585 3.585 0 017.17 0zm-17.63-9.8c.54.54 1.86 1.45 3 2.05.6.33 1.33.67 2.03.83-.3 1.09-.06 2.33.73 3.25-.06.14-.1.27-.15.41-1.19.09-2.22.76-2.79 1.7-1.86-1.24-5.59-1.56-5.64-1.56-.05 0-3.18.28-5.14 1.28a3.628 3.628 0 00-2.32-1.4c.57-4.35 2.29-8.34 4.84-11.66.63.45 1.38.69 2.12.69.21 0 .42-.02.62-.05.7 2.07 2.67 4.43 2.7 4.46zm-7.89 11.7c1.96.97 5.02 1.24 5.07 1.24.05 0 3.7-.32 5.59-1.53a3.568 3.568 0 002.97 1.81c.04.09.08.18.12.26-.84.92-1.13 2.18-.86 3.29-2.19.45-5.06 2.85-5.09 2.89-.04.03-2.06 2.44-2.73 4.54-.87-.13-1.79.07-2.55.59-2.56-3.3-4.3-7.28-4.9-11.61.99-.16 1.84-.71 2.38-1.48zm39.02 12.52c-.7-2.08-2.67-4.44-2.7-4.47-.04-.04-2.85-2.39-5.04-2.87.33-1.18.03-2.55-.91-3.5.02-.05.05-.09.07-.14 1.29-.01 2.44-.72 3.05-1.73 1.87 1.24 5.59 1.56 5.64 1.56.05 0 3.19-.28 5.14-1.28a3.68 3.68 0 001.98 1.32c-.58 4.3-2.28 8.25-4.79 11.55-.75-.44-1.63-.59-2.44-.44zm5.18-16.17c-1.96-.97-5.02-1.25-5.07-1.25-.04 0-3.7.33-5.58 1.54a3.63 3.63 0 00-2.98-1.82c-.03-.09-.06-.19-.1-.28.83-.91 1.11-2.15.84-3.26.72-.15 1.48-.5 2.1-.84 1.14-.6 2.45-1.51 3-2.05.54-.54 1.44-1.86 2.05-3 .25-.46.5-1 .68-1.54.16.02.33.04.49.04.66 0 1.33-.19 1.91-.55 2.5 3.32 4.17 7.28 4.73 11.59-.85.22-1.59.73-2.07 1.42z"></path> </svg>
