<svg xmlns="http://www.w3.org/2000/svg" xml:space="preserve" fill-rule="evenodd" stroke-linejoin="round" stroke-miterlimit="2" clip-rule="evenodd" viewBox="0 0 90 90"><path fill-rule="nonzero" d="m87.358 58.32-9.182 2.16-5.274-2.7 12.307-3.06c.976-.18 1.758-1.26 1.367-2.16-.195-.9-1.367-1.62-2.344-1.26l-16.018 3.96-3.517-1.8c1.954-2.52 4.493-4.68 7.619-6.3.586-.36.977-.9.977-1.62 0-.72-.391-1.26-.977-1.62-3.321-1.8-6.056-4.14-8.01-7.02l3.908-2.16 16.018 3.96c.977.18 2.149-.36 2.344-1.26.195-.9-.39-1.98-1.367-2.16l-12.307-3.06 5.274-2.7 9.377 2.34c.977.18 2.149-.36 2.344-1.26.195-.9-.39-1.98-1.367-2.16L83.06 27l3.711-1.98c.977-.54 1.173-1.62.782-2.52-.586-.9-1.758-1.08-2.735-.72l-3.712 1.98 1.563-5.04c.196-.9-.39-1.98-1.367-2.16-.977-.18-2.149.36-2.344 1.26l-2.735 8.46-5.275 2.7 3.321-11.34c.196-.9-.39-1.98-1.367-2.16-.977-.18-2.149.36-2.344 1.26L66.26 31.5l-3.907 2.16c-1.367-2.88-2.149-5.94-2.149-9.18 0-.72-.39-1.26-.976-1.62a1.902 1.902 0 0 0-1.954 0c-3.125 1.62-6.642 2.52-10.158 2.88v-4.32l11.72-10.8c.782-.72.782-1.8 0-2.52a2.001 2.001 0 0 0-2.734 0l-9.181 8.28V10.8l6.837-6.3c.781-.72.781-1.8 0-2.52a2.001 2.001 0 0 0-2.735 0l-4.102 3.78V1.8c0-1.08-.782-1.8-1.954-1.8s-1.953.72-1.953 1.8v3.96L38.91 1.98a2.001 2.001 0 0 0-2.734 0c-.782.72-.782 1.8 0 2.52l6.837 6.3v5.58L34.028 8.1a2.001 2.001 0 0 0-2.735 0c-.781.72-.781 1.8 0 2.52l11.72 10.8v4.32c-3.515-.18-7.032-1.08-10.157-2.88a1.902 1.902 0 0 0-1.954 0c-.586.36-.976.9-.976 1.62 0 3.24-.782 6.3-2.15 9.18L23.87 31.5l-4.298-14.76c-.195-.9-1.367-1.62-2.344-1.26-.977.18-1.758 1.26-1.367 2.16l3.32 11.34-5.47-2.7-2.539-8.64c-.195-.9-1.367-1.62-2.344-1.26-.977.18-1.758 1.26-1.367 2.16l1.562 5.04-3.711-1.98c-.977-.54-2.149-.18-2.735.72-.586.9-.195 1.98.781 2.52l3.712 1.98-5.47 1.44c-.977.18-1.758 1.26-1.367 2.16.195.9 1.367 1.44 2.344 1.26l9.181-2.16 5.275 2.7-12.307 3.06c-.977.18-1.758 1.26-1.368 2.16.196.9 1.368 1.44 2.344 1.26l16.019-3.96 3.907 2.16c-1.954 2.88-4.688 5.22-8.01 7.02-.585.36-.976.9-.976 1.62 0 .72.39 1.26.977 1.62 3.125 1.62 5.47 3.78 7.618 6.3l-3.516 1.8L5.702 51.3c-.976-.18-2.148.36-2.344 1.26-.195.9.391 1.98 1.368 2.16l12.307 3.06-5.275 2.7-9.376-2.34c-.977-.18-2.15.36-2.345 1.26-.195.9.391 1.98 1.368 2.16L6.875 63l-3.712 1.98c-.977.54-1.172 1.62-.781 2.52.586.9 1.758 1.08 2.734.72l3.712-1.98-1.563 5.04c-.195.9.391 1.98 1.368 2.16.976.18 2.149-.36 2.344-1.26l2.54-8.64 5.274-2.7-3.126 11.34c-.195.9.39 1.98 1.368 2.16.976.18 2.148-.36 2.344-1.26l4.297-14.76 3.517-1.98c1.562 3.06 2.54 6.3 2.54 9.9 0 .72.39 1.26.976 1.62a1.9 1.9 0 0 0 1.953 0c3.126-1.62 6.642-2.52 10.158-2.88v3.6l-11.72 10.8c-.782.72-.782 1.8 0 2.52a2 2 0 0 0 2.734 0l8.986-8.28v5.58l-6.837 6.3c-.781.72-.781 1.8 0 2.52.782.72 1.954.72 2.735 0l4.102-3.78v3.96c0 1.08.782 1.8 1.954 1.8s1.953-.72 1.953-1.8v-3.96l4.103 3.78a2 2 0 0 0 2.734 0c.782-.72.782-1.8 0-2.52l-6.641-6.3v-5.58l8.986 8.28c.781.72 1.953.72 2.735 0 .78-.72.78-1.8 0-2.52L46.92 68.58v-3.6c3.516.18 7.032 1.08 10.158 2.88a1.9 1.9 0 0 0 1.953 0c.586-.36.977-.9.977-1.62 0-3.42.977-6.84 2.54-9.9l3.516 1.98 4.297 14.76c.196.72.977 1.26 1.954 1.26 1.367 0 2.149-1.08 1.953-2.34l-3.32-11.34 5.274 2.7 2.54 8.64c.195.72.976 1.26 1.953 1.26 1.367 0 2.149-1.08 1.953-2.34l-1.563-5.04 3.712 1.98c.977.54 2.149.18 2.735-.72.586-.9.195-1.98-.782-2.52l-3.711-1.98 5.47-1.44c.976-.18 1.758-1.26 1.367-2.16-.39-.54-1.563-1.08-2.54-.72Zm-19.73-12.96c-2.54 1.62-4.689 3.78-6.447 6.12L48.874 45l11.916-6.3a25.582 25.582 0 0 0 6.837 6.66Zm-11.33-18c.39 2.88 1.171 5.58 2.539 8.1L46.92 41.94V29.52c3.125-.18 6.446-.9 9.376-2.16Zm-22.66 0c2.93 1.26 6.055 1.8 9.376 1.98v12.42l-11.916-6.3c1.367-2.52 2.148-5.22 2.54-8.1Zm-11.331 18a25.582 25.582 0 0 0 6.837-6.66L41.06 45l-12.307 6.48c-1.758-2.34-3.907-4.32-6.446-6.12Zm11.33 18.18c-.39-3.06-1.367-6.12-2.93-8.82l12.307-6.48v13.32c-3.321 0-6.447.72-9.377 1.98Zm22.66 0c-2.93-1.26-6.055-1.8-9.376-2.16V48.06l12.307 6.48c-1.563 2.88-2.54 5.76-2.93 9Z"/></svg>
