<?xml version="1.0" encoding="UTF-8" standalone="no"?>
<!DOCTYPE svg PUBLIC "-//W3C//DTD SVG 1.1//EN" "http://www.w3.org/Graphics/SVG/1.1/DTD/svg11.dtd">
<svg width="100%" height="100%" viewBox="0 0 190 50" version="1.1" xmlns="http://www.w3.org/2000/svg" xmlns:xlink="http://www.w3.org/1999/xlink" xml:space="preserve" xmlns:serif="http://www.serif.com/" style="fill-rule:evenodd;clip-rule:evenodd;stroke-linejoin:round;stroke-miterlimit:2;">
    <g transform="matrix(23.8609,0,0,23.8609,-2958.82,-929.567)">
        <g>
            <g transform="matrix(0.00205163,0,0,0.00255965,122.907,35.4626)">
                <path d="M4415.7,1530.25L4415.7,2019.43C4415.7,2110.35 4326.5,2184.17 4216.63,2184.17L733.55,2184.17C623.68,2184.17 534.48,2110.35 534.48,2019.43L534.48,1530.25C534.48,1439.33 623.68,1365.51 733.55,1365.51L4216.63,1365.51C4326.5,1365.51 4415.7,1439.33 4415.7,1530.25ZM4374.76,1530.25C4374.76,1457.72 4304.27,1398.32 4216.63,1398.32L733.55,1398.32C645.908,1398.32 575.419,1457.72 575.419,1530.25L575.419,2019.43C575.419,2091.96 645.908,2151.36 733.55,2151.36L4216.63,2151.36C4304.27,2151.36 4374.76,2091.96 4374.76,2019.43L4374.76,1530.25Z"/>
            </g>
            <g transform="matrix(0.00286891,0,0,0.00286891,122.904,35.3594)">
                <path d="M1551.23,1606.75L1566.83,1537.75L1563.53,1536.85C1548.53,1560.25 1517.03,1596.85 1496.03,1598.05L1461.83,1600.15L1461.83,1450.45C1461.83,1421.65 1465.13,1409.05 1473.83,1387.75L1473.83,1387.15L1396.13,1387.15L1396.13,1387.75C1404.83,1409.05 1408.13,1421.05 1408.13,1450.45L1408.13,1543.45C1408.13,1572.55 1404.83,1584.85 1396.13,1606.15L1396.13,1606.75L1551.23,1606.75Z" style="fill-rule:nonzero;"/>
            </g>
            <g transform="matrix(0.00286891,0,0,0.00286891,122.904,35.3594)">
                <path d="M1655.63,1461.25C1667.33,1461.25 1674.83,1473.25 1674.83,1501.45L1674.83,1512.85L1632.23,1513.45C1632.23,1486.15 1640.03,1461.25 1655.63,1461.25ZM1721.33,1563.85L1719.83,1562.95C1714.43,1568.95 1701.83,1577.35 1681.13,1577.35C1654.73,1577.35 1633.73,1563.55 1632.23,1519.45L1721.63,1519.75C1722.23,1489.15 1699.43,1455.85 1657.43,1455.85C1615.73,1455.85 1583.33,1489.15 1583.33,1536.25C1583.33,1578.25 1610.93,1611.25 1656.23,1611.25C1690.43,1611.25 1713.23,1592.05 1721.33,1563.85Z" style="fill-rule:nonzero;"/>
            </g>
            <g transform="matrix(0.00286891,0,0,0.00286891,122.904,35.3594)">
                <path d="M1798.43,1585.15C1785.23,1585.15 1778.33,1577.35 1778.33,1565.65C1778.33,1551.55 1790.03,1539.55 1811.03,1533.85L1811.03,1582.15C1807.73,1583.95 1803.23,1585.15 1798.43,1585.15ZM1844.03,1610.95C1869.53,1610.95 1880.03,1593.25 1884.23,1583.35L1883.63,1582.15C1879.73,1584.85 1875.53,1585.75 1872.23,1585.75C1862.63,1585.75 1859.33,1579.45 1859.33,1572.25L1859.33,1495.15C1859.33,1471.75 1844.63,1455.85 1812.53,1455.85C1780.13,1455.85 1756.43,1471.75 1742.03,1489.15L1743.23,1491.25C1756.73,1485.55 1770.53,1483.15 1782.23,1483.15C1803.53,1483.15 1811.03,1491.55 1811.03,1508.95L1811.03,1527.55C1777.13,1534.75 1736.03,1548.85 1736.03,1581.25C1736.03,1601.95 1751.63,1611.25 1769.93,1611.25C1789.13,1611.25 1803.53,1600.15 1811.93,1587.85C1814.63,1601.35 1825.73,1610.95 1844.03,1610.95Z" style="fill-rule:nonzero;"/>
            </g>
            <g transform="matrix(0.00286891,0,0,0.00286891,122.904,35.3594)">
                <path d="M1973.33,1586.65C1953.83,1586.65 1943.03,1567.75 1943.03,1528.45C1943.03,1482.55 1955.93,1461.25 1974.83,1461.25C1987.73,1461.25 1996.13,1471.45 1998.83,1493.05L1998.83,1575.55C1993.13,1582.15 1983.23,1586.65 1973.33,1586.65ZM1999.13,1581.55L1999.73,1581.55L1999.73,1610.95L2062.43,1597.45L2062.43,1596.85C2052.53,1586.05 2047.13,1577.35 2047.13,1543.75L2047.13,1373.05L1983.83,1390.45L1983.83,1391.05C1994.63,1403.65 1998.83,1416.25 1998.83,1439.05L1998.83,1459.75C1991.63,1457.35 1982.63,1455.85 1972.13,1455.85C1920.23,1455.85 1893.23,1495.15 1893.23,1540.45C1893.23,1582.15 1915.43,1611.25 1949.63,1611.25C1973.63,1611.25 1990.13,1596.85 1999.13,1581.55Z" style="fill-rule:nonzero;"/>
            </g>
            <g transform="matrix(0.00286891,0,0,0.00286891,122.904,35.3594)">
                <path d="M2145.53,1461.25C2157.23,1461.25 2164.73,1473.25 2164.73,1501.45L2164.73,1512.85L2122.13,1513.45C2122.13,1486.15 2129.93,1461.25 2145.53,1461.25ZM2211.23,1563.85L2209.73,1562.95C2204.33,1568.95 2191.73,1577.35 2171.03,1577.35C2144.63,1577.35 2123.63,1563.55 2122.13,1519.45L2211.53,1519.75C2212.13,1489.15 2189.33,1455.85 2147.33,1455.85C2105.63,1455.85 2073.23,1489.15 2073.23,1536.25C2073.23,1578.25 2100.83,1611.25 2146.13,1611.25C2180.33,1611.25 2203.13,1592.05 2211.23,1563.85Z" style="fill-rule:nonzero;"/>
            </g>
            <g transform="matrix(0.00286891,0,0,0.00286891,122.904,35.3594)">
                <path d="M2295.53,1606.75L2295.53,1606.15C2290.73,1591.45 2288.33,1578.85 2288.33,1553.95L2288.33,1497.25C2292.53,1492.15 2297.63,1488.55 2302.13,1488.55C2309.63,1488.55 2325.83,1496.05 2333.33,1506.25L2334.83,1506.25L2340.23,1455.85C2314.43,1454.05 2299.73,1477.75 2287.13,1490.65L2287.13,1454.35L2225.03,1471.75L2225.03,1472.35C2235.83,1484.95 2240.03,1497.85 2240.03,1520.05L2240.03,1553.95C2240.03,1579.45 2237.63,1591.45 2232.83,1606.15L2232.83,1606.75L2295.53,1606.75Z" style="fill-rule:nonzero;"/>
            </g>
            <g transform="matrix(0.00286891,0,0,0.00286891,122.904,35.3594)">
                <path d="M2453.63,1461.25C2443.73,1458.25 2430.23,1456.15 2416.43,1456.15C2383.13,1456.15 2354.93,1469.05 2354.93,1502.05C2354.93,1533.55 2378.03,1545.25 2398.73,1554.55C2418.23,1563.25 2434.13,1570.15 2434.13,1586.35C2434.13,1596.25 2428.43,1605.85 2412.83,1605.85C2392.73,1605.85 2374.73,1588.75 2355.23,1559.35L2352.53,1559.95L2356.73,1601.95C2369.93,1607.65 2387.63,1611.25 2405.63,1611.25C2439.53,1611.25 2467.73,1598.05 2467.73,1564.15C2467.73,1533.55 2446.43,1521.25 2425.43,1511.95C2405.63,1503.55 2386.13,1497.55 2386.13,1480.75C2386.13,1469.05 2395.73,1461.55 2408.03,1461.55C2423.33,1461.55 2435.93,1473.25 2454.83,1499.35L2457.53,1498.75L2453.63,1461.25Z" style="fill-rule:nonzero;"/>
            </g>
            <g transform="matrix(0.00286891,0,0,0.00286891,122.904,35.3594)">
                <path d="M2545.43,1606.75L2545.43,1606.15C2540.63,1591.45 2538.23,1578.85 2538.23,1553.95L2538.23,1493.05C2544.23,1485.25 2553.83,1478.35 2564.93,1478.35C2579.03,1478.35 2585.33,1487.95 2585.33,1500.55L2585.33,1554.25C2585.33,1578.55 2583.23,1591.45 2578.13,1606.15L2578.13,1606.75L2640.83,1606.75L2640.83,1606.15C2635.73,1591.45 2633.63,1579.15 2633.63,1553.95L2633.63,1497.55C2633.63,1472.05 2615.03,1455.85 2588.63,1455.85C2561.93,1455.85 2546.03,1472.05 2538.23,1484.65L2538.23,1373.05L2474.93,1390.45L2474.93,1391.05C2485.73,1403.65 2489.93,1416.25 2489.93,1438.75L2489.93,1553.95C2489.93,1579.45 2487.23,1591.45 2482.73,1606.15L2482.73,1606.75L2545.43,1606.75Z" style="fill-rule:nonzero;"/>
            </g>
            <g transform="matrix(0.00286891,0,0,0.00286891,122.904,35.3594)">
                <path d="M2714.63,1410.25C2714.63,1396.15 2702.63,1384.45 2688.23,1384.45C2673.83,1384.45 2662.43,1396.15 2662.43,1410.25C2662.43,1424.65 2673.83,1436.35 2688.23,1436.35C2702.63,1436.35 2714.63,1424.65 2714.63,1410.25ZM2661.23,1606.75L2723.93,1606.75L2723.93,1606.15C2719.13,1591.45 2716.73,1578.55 2716.73,1553.95L2716.73,1454.35L2653.43,1471.75L2653.43,1472.95C2664.23,1485.55 2668.73,1498.45 2668.73,1520.35L2668.73,1553.95C2668.73,1578.85 2665.43,1591.45 2661.23,1606.15L2661.23,1606.75Z" style="fill-rule:nonzero;"/>
            </g>
            <g transform="matrix(0.00286891,0,0,0.00286891,122.904,35.3594)">
                <path d="M2827.73,1605.85C2813.93,1605.85 2801.93,1593.25 2801.93,1559.05L2801.93,1486.45C2806.43,1483.45 2813.63,1480.15 2823.23,1480.15C2846.33,1480.15 2857.73,1497.85 2857.73,1540.15C2857.73,1580.35 2847.23,1605.85 2827.73,1605.85ZM2808.83,1674.25L2808.83,1673.65C2804.03,1658.95 2801.93,1646.35 2801.93,1621.45L2801.93,1607.65C2809.43,1609.75 2818.43,1611.25 2829.23,1611.25C2882.63,1611.25 2908.13,1576.15 2908.13,1530.85C2908.13,1485.85 2884.73,1455.85 2849.93,1455.85C2826.53,1455.85 2811.23,1467.85 2802.53,1479.55L2800.73,1479.25L2800.73,1454.35L2738.63,1471.75L2738.63,1472.35C2749.13,1484.95 2753.63,1497.85 2753.63,1520.05L2753.63,1621.45C2753.63,1646.95 2750.93,1658.95 2746.13,1673.65L2746.13,1674.25L2808.83,1674.25Z" style="fill-rule:nonzero;"/>
            </g>
            <g transform="matrix(0.00286891,0,0,0.00286891,118.381,36.0851)">
                <path d="M3183.53,1529.65L3180.53,1528.75C3154.43,1574.65 3134.33,1604.35 3098.03,1604.35C3055.73,1604.35 3032.63,1565.05 3032.63,1499.65C3032.63,1434.55 3049.43,1389.55 3098.63,1389.55C3128.63,1389.55 3146.93,1406.05 3179.33,1449.85L3182.33,1448.95L3176.33,1393.75C3157.73,1388.65 3134.03,1382.65 3100.13,1382.65C3027.53,1382.65 2974.73,1434.55 2974.73,1499.65C2974.73,1564.75 3027.83,1611.25 3097.73,1611.25C3140.93,1611.25 3169.73,1594.15 3177.53,1588.75L3183.53,1529.65Z" style="fill-rule:nonzero;"/>
            </g>
            <g transform="matrix(0.00286891,0,0,0.00286891,118.381,36.0851)">
                <path d="M3289.13,1611.25C3333.23,1611.25 3369.83,1575.55 3369.83,1533.85C3369.83,1492.15 3333.23,1455.85 3289.13,1455.85C3245.03,1455.85 3208.43,1492.15 3208.43,1533.85C3208.43,1575.55 3245.03,1611.25 3289.13,1611.25ZM3289.13,1605.55C3267.83,1605.55 3258.23,1576.45 3258.23,1533.85C3258.23,1491.25 3267.53,1461.55 3289.13,1461.55C3310.43,1461.55 3320.03,1491.25 3320.03,1533.85C3320.03,1576.45 3310.43,1605.55 3289.13,1605.55Z" style="fill-rule:nonzero;"/>
            </g>
            <g transform="matrix(0.00286891,0,0,0.00286891,118.381,36.0851)">
                <path d="M3452.33,1606.15C3447.53,1591.45 3445.13,1578.85 3445.13,1553.95L3445.13,1493.05C3450.83,1484.95 3460.43,1478.35 3471.53,1478.35C3485.93,1478.35 3492.23,1487.95 3492.23,1500.55L3492.23,1554.25C3492.23,1578.55 3490.13,1591.45 3485.03,1606.15L3485.03,1606.75L3547.73,1606.75L3547.73,1606.15C3542.63,1591.45 3540.53,1579.15 3540.53,1553.65L3540.53,1497.55C3540.53,1472.05 3521.93,1455.85 3495.53,1455.85C3468.83,1455.85 3453.23,1472.05 3445.13,1484.65L3443.93,1484.35L3443.93,1454.35L3381.83,1471.75L3381.83,1472.35C3392.63,1484.95 3396.83,1497.85 3396.83,1520.05L3397.13,1553.95C3397.13,1579.45 3394.43,1591.45 3389.63,1606.15L3389.63,1606.75L3452.33,1606.75L3452.33,1606.15Z" style="fill-rule:nonzero;"/>
            </g>
            <g transform="matrix(0.00286891,0,0,0.00286891,118.381,36.0851)">
                <path d="M3619.43,1611.25C3643.13,1611.25 3659.33,1599.55 3665.93,1587.85L3665.03,1586.95C3664.73,1587.25 3658.43,1592.05 3647.93,1592.05C3635.93,1592.05 3626.33,1586.35 3626.33,1568.35L3626.33,1467.25L3662.03,1467.25L3662.03,1460.65L3626.33,1460.65L3626.33,1425.85L3623.03,1425.85L3561.23,1464.55L3561.23,1467.25L3578.03,1467.25L3578.03,1569.55C3578.03,1599.55 3595.13,1611.25 3619.43,1611.25Z" style="fill-rule:nonzero;"/>
            </g>
            <g transform="matrix(0.00286891,0,0,0.00286891,118.381,36.0851)">
                <path d="M3733.13,1410.25C3733.13,1396.15 3721.13,1384.45 3706.73,1384.45C3692.33,1384.45 3680.93,1396.15 3680.93,1410.25C3680.93,1424.65 3692.33,1436.35 3706.73,1436.35C3721.13,1436.35 3733.13,1424.65 3733.13,1410.25ZM3679.73,1606.75L3742.43,1606.75L3742.43,1606.15C3737.63,1591.45 3735.23,1578.55 3735.23,1553.95L3735.23,1454.35L3671.93,1471.75L3671.93,1472.95C3682.73,1485.55 3687.23,1498.45 3687.23,1520.35L3687.23,1553.95C3687.23,1578.85 3683.93,1591.45 3679.73,1606.15L3679.73,1606.75Z" style="fill-rule:nonzero;"/>
            </g>
            <g transform="matrix(0.00286891,0,0,0.00286891,118.381,36.0851)">
                <path d="M3828.23,1606.15C3823.43,1591.45 3821.03,1578.85 3821.03,1553.95L3821.03,1493.05C3826.73,1484.95 3836.33,1478.35 3847.43,1478.35C3861.83,1478.35 3868.13,1487.95 3868.13,1500.55L3868.13,1554.25C3868.13,1578.55 3866.03,1591.45 3860.93,1606.15L3860.93,1606.75L3923.63,1606.75L3923.63,1606.15C3918.53,1591.45 3916.43,1579.15 3916.43,1553.65L3916.43,1497.55C3916.43,1472.05 3897.83,1455.85 3871.43,1455.85C3844.73,1455.85 3829.13,1472.05 3821.03,1484.65L3819.83,1484.35L3819.83,1454.35L3757.73,1471.75L3757.73,1472.35C3768.53,1484.95 3772.73,1497.85 3772.73,1520.05L3773.03,1553.95C3773.03,1579.45 3770.33,1591.45 3765.53,1606.15L3765.53,1606.75L3828.23,1606.75L3828.23,1606.15Z" style="fill-rule:nonzero;"/>
            </g>
            <g transform="matrix(0.00286891,0,0,0.00286891,118.381,36.0851)">
                <path d="M4039.73,1577.95L4040.63,1578.25L4040.63,1610.95L4102.43,1597.45L4102.43,1596.85C4091.63,1586.05 4087.43,1577.95 4087.43,1544.35L4087.43,1460.65L4027.73,1460.65L4027.73,1461.25C4034.93,1469.35 4039.13,1477.15 4039.13,1495.15L4039.13,1571.65C4034.33,1580.05 4027.13,1586.35 4017.23,1586.35C4003.73,1586.35 3998.03,1576.15 3998.03,1563.85L3998.03,1460.65L3938.63,1460.65L3938.63,1461.55C3945.53,1469.95 3950.03,1477.45 3950.03,1495.45L3950.03,1563.55C3950.03,1592.35 3964.73,1611.25 3990.53,1611.25C4016.93,1611.25 4033.13,1590.55 4039.73,1577.95Z" style="fill-rule:nonzero;"/>
            </g>
            <g transform="matrix(0.00286891,0,0,0.00286891,118.381,36.0851)">
                <path d="M4212.53,1577.95L4213.43,1578.25L4213.43,1610.95L4275.23,1597.45L4275.23,1596.85C4264.43,1586.05 4260.23,1577.95 4260.23,1544.35L4260.23,1460.65L4200.53,1460.65L4200.53,1461.25C4207.73,1469.35 4211.93,1477.15 4211.93,1495.15L4211.93,1571.65C4207.13,1580.05 4199.93,1586.35 4190.03,1586.35C4176.53,1586.35 4170.83,1576.15 4170.83,1563.85L4170.83,1460.65L4111.43,1460.65L4111.43,1461.55C4118.33,1469.95 4122.83,1477.45 4122.83,1495.45L4122.83,1563.55C4122.83,1592.35 4137.53,1611.25 4163.33,1611.25C4189.73,1611.25 4205.93,1590.55 4212.53,1577.95Z" style="fill-rule:nonzero;"/>
            </g>
            <g transform="matrix(0.00286891,0,0,0.00286891,118.381,36.0851)">
                <path d="M4355.33,1606.15C4350.23,1591.45 4348.13,1578.85 4348.13,1553.95L4348.13,1493.95C4353.53,1484.35 4362.83,1478.35 4373.03,1478.35C4385.63,1478.35 4390.43,1487.05 4390.43,1498.45L4390.43,1554.25C4390.43,1578.55 4388.33,1591.45 4383.23,1606.15L4383.23,1606.75L4445.93,1606.75L4445.93,1606.15C4440.83,1591.45 4438.43,1579.15 4438.43,1553.65L4438.43,1493.95C4444.13,1484.35 4453.43,1478.35 4463.63,1478.35C4476.23,1478.35 4481.03,1487.05 4481.03,1498.45L4481.03,1554.25C4481.03,1578.55 4478.63,1591.45 4473.83,1606.15L4473.83,1606.75L4536.23,1606.75L4536.23,1606.15C4531.43,1591.45 4529.03,1579.15 4529.03,1553.65L4529.03,1496.35C4529.03,1471.45 4512.53,1455.85 4487.03,1455.85C4462.13,1455.85 4446.23,1471.45 4438.43,1484.65L4437.53,1484.35C4433.33,1466.65 4418.03,1455.85 4396.43,1455.85C4371.53,1455.85 4355.63,1471.45 4348.13,1484.65L4346.93,1484.35L4346.93,1454.35L4284.83,1471.75L4284.83,1472.35C4295.33,1484.95 4299.83,1497.85 4299.83,1520.05L4299.83,1553.95C4299.83,1579.45 4297.13,1591.45 4292.63,1606.15L4292.63,1606.75L4355.33,1606.75L4355.33,1606.15Z" style="fill-rule:nonzero;"/>
            </g>
            <g transform="matrix(0.0292314,0,0,0.0292314,124.244,38.8363)">
                <path d="M71.264,33.878C70.068,31.052 68.077,28.656 65.57,26.962C64.316,26.114 62.93,25.442 61.451,24.983C59.971,24.522 58.396,24.275 56.776,24.275C55.67,24.275 54.593,24.4 53.562,24.636C51.626,25.076 49.865,25.894 48.273,26.923C46.878,27.822 45.604,28.885 44.408,30.033C43.215,31.184 42.096,32.424 41.022,33.698C41.924,34.802 42.798,35.918 43.65,37.008L43.718,37.096C44.145,37.642 44.575,38.194 45.01,38.743C45.1,38.632 45.191,38.521 45.281,38.412C46.251,37.233 47.216,36.129 48.179,35.151C48.902,34.416 49.623,33.753 50.34,33.18C51.418,32.317 52.481,31.661 53.532,31.226C54.059,31.009 54.586,30.846 55.12,30.735C55.655,30.624 56.201,30.566 56.775,30.566C58.086,30.566 59.318,30.83 60.445,31.306C62.134,32.019 63.582,33.22 64.6,34.728C65.109,35.481 65.511,36.31 65.786,37.194C66.061,38.079 66.21,39.017 66.21,40.001C66.21,41.313 65.946,42.545 65.471,43.673C64.756,45.361 63.556,46.81 62.048,47.827C61.294,48.336 60.465,48.737 59.581,49.013C58.697,49.289 57.758,49.437 56.775,49.437C56.143,49.437 55.546,49.366 54.959,49.233C54.19,49.057 53.433,48.771 52.669,48.371C52.415,48.237 52.159,48.092 51.902,47.933C51.133,47.458 50.357,46.87 49.577,46.181C49.284,45.923 48.991,45.652 48.698,45.368C47.818,44.515 46.936,43.551 46.052,42.514C45.315,41.648 44.575,40.733 43.829,39.788C43.382,39.223 42.933,38.647 42.478,38.066C41.249,36.494 39.996,34.886 38.674,33.339C37.682,32.18 36.653,31.054 35.558,30.004C34.737,29.216 33.879,28.471 32.97,27.791C32.8,27.664 32.628,27.539 32.454,27.416C31.235,26.556 29.923,25.815 28.497,25.267C27.175,24.758 25.754,24.422 24.266,24.315C23.922,24.29 23.576,24.277 23.225,24.278C21.063,24.278 18.986,24.717 17.103,25.514C14.277,26.711 11.882,28.7 10.187,31.208C9.34,32.462 8.667,33.848 8.208,35.328C7.747,36.804 7.5,38.379 7.5,40C7.5,42.162 7.94,44.239 8.737,46.122C9.933,48.948 11.923,51.343 14.431,53.038C15.685,53.885 17.071,54.558 18.55,55.018C20.029,55.478 21.604,55.725 23.225,55.725C24.33,55.725 25.408,55.599 26.438,55.365C28.374,54.924 30.135,54.106 31.728,53.078C33.123,52.179 34.396,51.115 35.592,49.967C36.785,48.817 37.904,47.577 38.978,46.302C38.072,45.193 37.194,44.073 36.338,42.978L36.281,42.905C35.855,42.359 35.424,41.807 34.99,41.258C34.899,41.368 34.809,41.48 34.719,41.59C33.748,42.768 32.783,43.872 31.82,44.851C31.097,45.585 30.376,46.248 29.659,46.823C28.582,47.685 27.518,48.342 26.467,48.776C25.94,48.994 25.414,49.157 24.879,49.268C24.344,49.378 23.799,49.437 23.225,49.437C21.913,49.437 20.681,49.173 19.554,48.696C17.865,47.983 16.417,46.783 15.4,45.275C14.891,44.521 14.489,43.692 14.213,42.808C13.939,41.924 13.79,40.985 13.79,40.001C13.79,38.689 14.054,37.457 14.529,36.329C15.244,34.64 16.444,33.192 17.952,32.175C18.705,31.665 19.534,31.264 20.418,30.989C21.302,30.714 22.241,30.565 23.225,30.565C23.857,30.565 24.454,30.636 25.04,30.769C26.065,31.003 27.07,31.434 28.097,32.069C28.867,32.545 29.643,33.133 30.422,33.822C31.593,34.853 32.769,36.106 33.948,37.49C35.128,38.874 36.311,40.389 37.52,41.936C38.749,43.508 40.002,45.117 41.324,46.664C42.316,47.824 43.345,48.949 44.44,50C44.645,50.197 44.852,50.391 45.063,50.583C45.694,51.155 46.346,51.702 47.028,52.213C48.39,53.233 49.872,54.11 51.501,54.737C51.603,54.776 51.705,54.814 51.808,54.851C53.351,55.407 55.023,55.727 56.775,55.726C58.936,55.726 61.013,55.287 62.896,54.49C65.722,53.294 68.117,51.303 69.812,48.796C70.659,47.542 71.333,46.156 71.792,44.676C72.254,43.195 72.5,41.621 72.5,40C72.5,37.837 72.061,35.76 71.264,33.878Z" style="fill-rule:nonzero;"/>
            </g>
        </g>
    </g>
</svg>
