<svg xmlns="http://www.w3.org/2000/svg" xmlns:xlink="http://www.w3.org/1999/xlink" version="1.1" x="0px" y="0px" viewBox="0 0 100 125" enable-background="new 0 0 100 100" xml:space="preserve"><path d="M71.4,14.8c-5,0.1-9.9,0.2-14.9,0.2c-6.9,0.1-13.7,0.2-20.6,0.3c-3.5,0-7-0.1-10.5,0.2c-2.3,0.2-4,2.1-4,4.3  c0-0.1,0-0.2,0-0.2c0.1,1.1,0.3,2.1,1.1,2.9c1.2,1.3,2.8,1.4,4.4,1.4c4.5,0,9.1-0.1,13.6-0.1c5,0,9.9-0.1,14.9-0.1  c2.2,0,4.4-0.2,6.6,0.2c6.8,1.1,11.9,7.5,11.5,14.3c-0.2,3.7-1.8,7.2-4.5,9.7c-3.2,3-7.1,3.7-11.3,3.7c-5.4,0-10.9,0-16.3,0  c-2.7,0-5.5,0-8.2,0c-2.5,0-5.1-0.1-7.6,0c0.1,0,0.1,0,0.2,0c-0.9,0-1.7,0.2-2.5,0.8c-0.7,0.5-1.2,1.2-1.4,2c0,0.2-0.1,1.3-0.2,0.8  c0.1,1.6,0.7,3,2.2,3.7c1.4,0.7,3.3,0.4,4.8,0.4c6.3,0,12.6,0.1,18.9,0.1c3.1,0,6.2,0,9.2,0c1.3,0,2.6,0,3.8,0.1  c4.9,0.5,9.3,3.6,11.2,8.1c1.5,3.4,1.5,7.3,0.1,10.7c-2.1,4.8-6.8,8-12.1,8.2c-5.6,0.2-11.2-0.1-16.7-0.1c-5.5-0.1-11-0.1-16.5-0.2  c-3.5,0-7-0.2-10.5-0.1c-5,0.1-8.5,4.7-10.8,8.7c-3.2-5.6,0.6-12.9,5.8-15.6c2.9-1.5,6-1.3,9.2-1.4c8.9-0.2,17.7-0.2,26.6-0.3  c4.1,0,8.1,0,12.2-0.1c2.7-0.1,4.5-2,4.5-4.6c0,0.1,0,0.1,0,0.2c-0.2-2.5-2.1-4.1-4.5-4.1c0.1,0,0.1,0,0.2,0c-9,0-18,0.1-27.1,0.1  c-3.1,0-6.4,0.4-9.5-0.2c-4.2-0.8-7.9-3.6-9.7-7.5c-3-6.1-1-13.8,4.6-17.7c2.3-1.6,5.1-2.4,7.9-2.4c4.7-0.1,9.3,0,14,0  c5.4,0,10.8,0,16.2,0c1.9,0,4.4,0.5,6-0.8c1-0.8,1.4-2,1.4-3.2c0,0.1,0,0.2,0,0.2c-0.1-2.3-1.9-3.8-4-3.9c0.1,0,0.1,0,0.2,0  c-2.8-0.1-5.7,0-8.5,0c-3.6,0-7.1,0-10.7,0c-3.4,0-6.8,0-10.1,0c-2.6,0-5.4,0.2-7.9-0.5c-9.7-2.5-13.5-14.6-7-22.1  c2-2.3,4.7-3.9,7.7-4.4c1.5-0.3,3.1-0.2,4.6-0.2c4.8,0.1,9.6,0.1,14.4,0.2c7.5,0.1,15,0.2,22.5,0.4c1.4,0,2.9,0,4.3,0.1  c0.6,0,1.7-0.2,2.3,0c0.4,0.2,0.2,1.1,0.2,1.6c0,1.7,0,3.4,0,5.1C71.4,14.1,71.4,14.5,71.4,14.8z"/><path d="M90.6,15.8c-2.1,1.2-4.3,2.1-6.7,1.1c-1.1-0.5-2-1.2-3-1.7c-1-0.5-2-0.6-3.1-0.4c0.9-0.4,1.8-0.6,2.9-0.4  c1.1,0.2,2.1,0.7,3.1,1c2.2,0.6,3.6-0.5,5.2-1.9C89.5,14.2,90.1,15,90.6,15.8z"/><path d="M74.2,22.8C71.1,19.2,68,15.6,65,12c-1-1.2-2-2.4-3-3.6c4.7-0.9,9.4-1.9,14.1-2.8c0.7-0.1,1.4-0.3,2.1-0.4  C78.4,5.2,79,5,79.3,5c0.3,0.1,0.1-0.1,0.3,0.3c0.3,0.6,0.4,1.4,0.6,2.1c0.2,0.5,1,2.2,0.7,2.6c-0.2,0.2-0.9,0.4-1.1,0.5  c-0.6,0.3-1.2,0.5-1.8,0.8c-2.6,1.1-5.2,2.3-7.8,3.4c0.7-1.9,1.4-3.8,2.1-5.7c1.2,2.8,2.5,5.7,3.7,8.5c0.3,0.7,0.6,1.5,1,2.2  c0.1,0.2,0.5,0.9,0.5,1.1c-0.1,0.3-1.2,0.8-1.5,0.9C75.4,22,74.8,22.4,74.2,22.8z"/><path d="M91.6,9.9c-0.1,1.7-0.3,3.5-0.4,5.2c-0.3-0.6-0.6-1.3-0.9-1.9c1.8,1.1,3.6,2.1,5.4,3.2c-2.8-0.2-5.6-0.4-8.4-0.6  C88.6,13.8,90.1,11.9,91.6,9.9z"/><text x="0" y="115" fill="#000000" font-size="5px" font-weight="bold" font-family="'Helvetica Neue', Helvetica, Arial-Unicode, Arial, Sans-serif">Created by Kyle Tezak</text><text x="0" y="120" fill="#000000" font-size="5px" font-weight="bold" font-family="'Helvetica Neue', Helvetica, Arial-Unicode, Arial, Sans-serif">from the Noun Project</text></svg>